<svg xmlns="http://www.w3.org/2000/svg" viewBox="0 0 128 128" style="enable-background:new 0 0 128 128" xml:space="preserve"><path style="fill:#171617" d="M64.595 127.81c-.162 0-.321-.001-.485-.004-16.868-.294-30.978-13.871-30.978-30.266 0-11.018 5.067-19.474 11.236-24.612v-60.58C44.368 5.612 50.62.191 57.353.191h11.106c6.733 0 12.924 5.421 12.924 12.157v61.021c8.225 6.253 14.118 16.595 12.875 27.494l-.179.001c-1.736 15.2-14.738 26.946-29.484 26.946zM57.352 8.42c-2.453 0-4.76 1.473-4.76 3.927v65.031l-1.838 1.11c-6.389 3.559-9.552 9.969-9.552 19.052 0 11.981 10.556 22.286 23.005 22.502 10.941.262 20.657-8.622 21.963-20.06.983-8.614-3.114-16.489-11.181-21.064l-1.833-1.116V12.347c0-2.454-2.246-3.927-4.699-3.927H57.352zm9.635 74.95V20.765h-8.225v63.2c-8.225 2.226-9.785 7.609-9.785 13.925 0 8.308 6.199 15.038 14.503 15.038s14.934-6.73 14.934-15.038c0-6.937-3.202-12.786-11.427-14.52z"/></svg>