<svg xmlns="http://www.w3.org/2000/svg" viewBox="0 0 64 64"><defs><style>.cls-2{fill:#cecece}.cls-3{fill:none;stroke:#000;stroke-linecap:round;stroke-linejoin:round;stroke-width:2px}.cls-6{mix-blend-mode:overlay;fill:#fff}</style></defs><g style="isolation:isolate"><g id="Layer_1" data-name="Layer 1"><g id="Vector"><path class="cls-2" d="M53.94 56.11c-2.6 0-4.89-.67-6.37-3.06-.5-.81-.63-1.56.11-2.24s1.5-1.29 2.57-.64a12.05 12.05 0 0 1 1.21.8c1.49 1.17 3 1.34 4.49.05 1.17-1 2-2.28 1.36-3.81a4 4 0 0 0-4-2.75H38.58c-1.55 0-3-.37-3-2.08s1.35-2.16 2.92-2.15h15.56c4.45 0 7.62 3.5 7.58 8.11a7.57 7.57 0 0 1-7.7 7.77zM53.94 7.89c-2.6 0-4.89.67-6.37 3.06-.5.81-.63 1.56.11 2.24s1.5 1.29 2.57.64a12.05 12.05 0 0 0 1.21-.8c1.49-1.17 3-1.34 4.49 0 1.17 1 2 2.28 1.36 3.81a4 4 0 0 1-4 2.75c-4.91-.05-9.82 0-14.73 0-1.55 0-3 .37-3 2.08s1.35 2.16 2.92 2.15h15.56c4.45 0 7.62-3.5 7.58-8.11a7.57 7.57 0 0 0-7.7-7.82z"/><rect class="cls-2" x="39.28" y="29.64" width="18.73" height="4.64" rx="1.98"/><path class="cls-2" d="M10.06 56.11c2.6 0 4.89-.67 6.37-3.06.5-.81.63-1.56-.11-2.24s-1.5-1.29-2.57-.64a12.05 12.05 0 0 0-1.21.8c-1.49 1.17-3 1.34-4.49.05-1.17-1-2-2.28-1.36-3.81a4 4 0 0 1 4-2.75h14.73c1.55 0 3-.37 3-2.08s-1.42-2.13-2.96-2.12H9.9c-4.45 0-7.62 3.5-7.58 8.11a7.57 7.57 0 0 0 7.74 7.74zM10.06 7.89c2.6 0 4.89.67 6.37 3.06.5.81.63 1.56-.11 2.24s-1.5 1.29-2.57.64a12.05 12.05 0 0 1-1.21-.8c-1.49-1.17-3-1.34-4.49 0-1.17 1-2 2.28-1.36 3.81a4 4 0 0 0 4 2.75c4.91-.05 9.82 0 14.73 0 1.55 0 3 .37 3 2.08s-1.42 2.08-2.96 2.07H9.9c-4.45 0-7.62-3.5-7.58-8.11a7.57 7.57 0 0 1 7.74-7.74z"/><rect class="cls-2" x="5.98" y="29.64" width="18.73" height="4.64" rx="1.98" transform="rotate(-180 15.35 31.96)"/></g><g id="Line"><path class="cls-3" d="M53.94 56.11c-2.6 0-4.89-.67-6.37-3.06-.5-.81-.63-1.56.11-2.24s1.5-1.29 2.57-.64a12.05 12.05 0 0 1 1.21.8c1.49 1.17 3 1.34 4.49.05 1.17-1 2-2.28 1.36-3.81a4 4 0 0 0-4-2.75H38.58c-1.55 0-3-.37-3-2.08s1.35-2.16 2.92-2.15h15.56c4.45 0 7.62 3.5 7.58 8.11a7.57 7.57 0 0 1-7.7 7.77zM53.94 7.89c-2.6 0-4.89.67-6.37 3.06-.5.81-.63 1.56.11 2.24s1.5 1.29 2.57.64a12.05 12.05 0 0 0 1.21-.8c1.49-1.17 3-1.34 4.49 0 1.17 1 2 2.28 1.36 3.81a4 4 0 0 1-4 2.75c-4.91-.05-9.82 0-14.73 0-1.55 0-3 .37-3 2.08s1.35 2.16 2.92 2.15h15.56c4.45 0 7.62-3.5 7.58-8.11a7.57 7.57 0 0 0-7.7-7.82z"/><rect class="cls-3" x="39.28" y="29.64" width="18.73" height="4.64" rx="1.98"/><path class="cls-3" d="M10.06 56.11c2.6 0 4.89-.67 6.37-3.06.5-.81.63-1.56-.11-2.24s-1.5-1.29-2.57-.64a12.05 12.05 0 0 0-1.21.8c-1.49 1.17-3 1.34-4.49.05-1.17-1-2-2.28-1.36-3.81a4 4 0 0 1 4-2.75h14.73c1.55 0 3-.37 3-2.08s-1.42-2.13-2.96-2.12H9.9c-4.45 0-7.62 3.5-7.58 8.11a7.57 7.57 0 0 0 7.74 7.74zM10.06 7.89c2.6 0 4.89.67 6.37 3.06.5.81.63 1.56-.11 2.24s-1.5 1.29-2.57.64a12.05 12.05 0 0 1-1.21-.8c-1.49-1.17-3-1.34-4.49 0-1.17 1-2 2.28-1.36 3.81a4 4 0 0 0 4 2.75c4.91-.05 9.82 0 14.73 0 1.55 0 3 .37 3 2.08s-1.42 2.08-2.96 2.07H9.9c-4.45 0-7.62-3.5-7.58-8.11a7.57 7.57 0 0 1 7.74-7.74z"/><rect class="cls-3" x="5.98" y="29.64" width="18.73" height="4.64" rx="1.98" transform="rotate(-180 15.35 31.96)"/></g><g id="Shadow" style="opacity:.25;mix-blend-mode:multiply"><path d="M8 34.28h5a2 2 0 0 1-2-2v-.67a2 2 0 0 1 2-2H8a2 2 0 0 0-2 2v.67a2 2 0 0 0 2 2zM25.57 19.52H15.45h.21c3.34-.02 6.61-.01 9.91 0z"/><path d="M2.32 15.6c0 4.61 3.13 8.07 7.58 8.11 5.19.06 10.38 0 15.56 0h.11H14.9a7.41 7.41 0 0 1-7.17-5.3 5.07 5.07 0 0 1-1-1.62 3 3 0 0 1 1-3.44 7.4 7.4 0 0 1 5.1-5.13 10.6 10.6 0 0 0-2.69-.33 7.57 7.57 0 0 0-7.82 7.71zM13.75 50.17c-.32.2-.64.4-.95.62a2.73 2.73 0 0 0 .25.23 3 3 0 0 0 3.72.45 1.59 1.59 0 0 0-.45-.66c-.71-.66-1.5-1.29-2.57-.64zM15.66 44.46h-.21 10.12c-3.3.03-6.57.04-9.91 0z"/><path d="M7.65 50.65a3 3 0 0 1-1-3.44 5.07 5.07 0 0 1 1-1.62 7.41 7.41 0 0 1 7.17-5.3h10.67H9.82c-4.45 0-7.62 3.5-7.58 8.11a7.57 7.57 0 0 0 7.74 7.71 10.6 10.6 0 0 0 2.69-.33 7.4 7.4 0 0 1-5.02-5.13z"/></g><g id="Highligth" style="mix-blend-mode:overlay"><path class="cls-6" d="M24.72 32.29v-.67a2 2 0 0 0-2-2h-5a2 2 0 0 1 2 2v.67a2 2 0 0 1-2 2h5a2 2 0 0 0 2-2zM51 34.28h5a2 2 0 0 0 2-2v-.67a2 2 0 0 0-2-2h-5a2 2 0 0 1 2 2v.67a2 2 0 0 1-2 2zM38.43 19.52H48.55h-9.94zM48.34 44.46h-9.91 10.12zM25.39 19.51h-4.82c1.48 0 2.79.43 2.81 2.07s-1.29 2.14-2.81 2.15h4.89c1.57 0 2.94-.45 2.92-2.15s-1.44-2.08-2.99-2.07zM25.46 40.26h-4.89c1.52 0 2.83.49 2.81 2.15s-1.33 2.05-2.81 2.07h4.82c1.55 0 3-.37 3-2.08s-1.39-2.15-2.93-2.14zM50.25 50.17c-1.07-.65-1.86 0-2.57.64a1.59 1.59 0 0 0-.45.66A3 3 0 0 0 51 51a2.73 2.73 0 0 0 .25-.23c-.36-.2-.68-.4-1-.6zM16.32 50.81c-.71-.66-1.5-1.29-2.57-.64a12.05 12.05 0 0 0-1.21.8 5.59 5.59 0 0 1-.77.5 1.91 1.91 0 0 1-.34 1.58 6.22 6.22 0 0 1-1.56 1.72 4.5 4.5 0 0 1-.18 1.31h.37c2.6 0 4.89-.67 6.37-3.06.5-.78.63-1.53-.11-2.21z"/><path class="cls-6" d="M54.1 40.29c-5.19-.06-10.38 0-15.56 0h-.11H49.1a7.41 7.41 0 0 1 7.17 5.3 5.07 5.07 0 0 1 1 1.62 3 3 0 0 1-1 3.44 7.4 7.4 0 0 1-5.1 5.13 10.6 10.6 0 0 0 2.69.33 7.57 7.57 0 0 0 7.74-7.71c.12-4.61-3.05-8.07-7.5-8.11zM53.94 7.89a10.6 10.6 0 0 0-2.69.33 7.4 7.4 0 0 1 5.1 5.13 3 3 0 0 1 1 3.44 5.07 5.07 0 0 1-1 1.62 7.41 7.41 0 0 1-7.17 5.3H38.51h15.67c4.45 0 7.62-3.5 7.58-8.11a7.57 7.57 0 0 0-7.82-7.71z"/></g></g></g></svg>